<?xml version="1.0" encoding="UTF-8"?>
<svg xmlns="http://www.w3.org/2000/svg"
     width="660" height="860"
     viewBox="-381.77 -490.00 659.62 860.00">
  <rect x="-381.77" y="-490.00" width="659.62" height="860.00" fill="#FFFFFF"/>
  <polygon points="69.28,-320.00 69.28,-280.00 34.64,-260.00 -0.00,-280.00 0.00,-320.00 34.64,-340.00" fill="#E8FFE8" stroke="#88CC88" stroke-width="1.5" stroke-dasharray="5,5" opacity="0.6"/>
  <polygon points="103.92,-380.00 103.92,-340.00 69.28,-320.00 34.64,-340.00 34.64,-380.00 69.28,-400.00" fill="#E8FFE8" stroke="#88CC88" stroke-width="1.5" stroke-dasharray="5,5" opacity="0.6"/>
  <polygon points="173.21,-140.00 173.21,-100.00 138.56,-80.00 103.92,-100.00 103.92,-140.00 138.56,-160.00" fill="#E8FFE8" stroke="#88CC88" stroke-width="1.5" stroke-dasharray="5,5" opacity="0.6"/>
  <polygon points="207.85,-80.00 207.85,-40.00 173.21,-20.00 138.56,-40.00 138.56,-80.00 173.21,-100.00" fill="#E8FFE8" stroke="#88CC88" stroke-width="1.5" stroke-dasharray="5,5" opacity="0.6"/>
  <polygon points="207.85,-200.00 207.85,-160.00 173.21,-140.00 138.56,-160.00 138.56,-200.00 173.21,-220.00" fill="#E8FFE8" stroke="#88CC88" stroke-width="1.5" stroke-dasharray="5,5" opacity="0.6"/>
  <polygon points="207.85,-320.00 207.85,-280.00 173.21,-260.00 138.56,-280.00 138.56,-320.00 173.21,-340.00" fill="#E8FFE8" stroke="#88CC88" stroke-width="1.5" stroke-dasharray="5,5" opacity="0.6"/>
  <polygon points="-242.49,220.00 -242.49,260.00 -277.13,280.00 -311.77,260.00 -311.77,220.00 -277.13,200.00" fill="#E8FFE8" stroke="#88CC88" stroke-width="1.5" stroke-dasharray="5,5" opacity="0.6"/>
  <polygon points="-103.92,-380.00 -103.92,-340.00 -138.56,-320.00 -173.21,-340.00 -173.21,-380.00 -138.56,-400.00" fill="#E8FFE8" stroke="#88CC88" stroke-width="1.5" stroke-dasharray="5,5" opacity="0.6"/>
  <polygon points="-69.28,160.00 -69.28,200.00 -103.92,220.00 -138.56,200.00 -138.56,160.00 -103.92,140.00" fill="#E8FFE8" stroke="#88CC88" stroke-width="1.5" stroke-dasharray="5,5" opacity="0.6"/>
  <polygon points="-69.28,-440.00 -69.28,-400.00 -103.92,-380.00 -138.56,-400.00 -138.56,-440.00 -103.92,-460.00" fill="#E8FFE8" stroke="#88CC88" stroke-width="1.5" stroke-dasharray="5,5" opacity="0.6"/>
  <polygon points="103.92,100.00 103.92,140.00 69.28,160.00 34.64,140.00 34.64,100.00 69.28,80.00" fill="#E8FFE8" stroke="#88CC88" stroke-width="1.5" stroke-dasharray="5,5" opacity="0.6"/>
  <polygon points="0.00,-200.00 0.00,-160.00 -34.64,-140.00 -69.28,-160.00 -69.28,-200.00 -34.64,-220.00" fill="#E8FFE8" stroke="#88CC88" stroke-width="1.5" stroke-dasharray="5,5" opacity="0.6"/>
  <polygon points="-207.85,40.00 -207.85,80.00 -242.49,100.00 -277.13,80.00 -277.13,40.00 -242.49,20.00" fill="#E8FFE8" stroke="#88CC88" stroke-width="1.5" stroke-dasharray="5,5" opacity="0.6"/>
  <polygon points="-103.92,-140.00 -103.92,-100.00 -138.56,-80.00 -173.21,-100.00 -173.21,-140.00 -138.56,-160.00" fill="#E8FFE8" stroke="#88CC88" stroke-width="1.5" stroke-dasharray="5,5" opacity="0.6"/>
  <polygon points="-138.56,-80.00 -138.56,-40.00 -173.21,-20.00 -207.85,-40.00 -207.85,-80.00 -173.21,-100.00" fill="#E8FFE8" stroke="#88CC88" stroke-width="1.5" stroke-dasharray="5,5" opacity="0.6"/>
  <polygon points="173.21,-380.00 173.21,-340.00 138.56,-320.00 103.92,-340.00 103.92,-380.00 138.56,-400.00" fill="#E8FFE8" stroke="#88CC88" stroke-width="1.5" stroke-dasharray="5,5" opacity="0.6"/>
  <polygon points="34.64,-380.00 34.64,-340.00 0.00,-320.00 -34.64,-340.00 -34.64,-380.00 -0.00,-400.00" fill="#E8FFE8" stroke="#88CC88" stroke-width="1.5" stroke-dasharray="5,5" opacity="0.6"/>
  <polygon points="242.49,-20.00 242.49,20.00 207.85,40.00 173.21,20.00 173.21,-20.00 207.85,-40.00" fill="#E8FFE8" stroke="#88CC88" stroke-width="1.5" stroke-dasharray="5,5" opacity="0.6"/>
  <polygon points="-242.49,100.00 -242.49,140.00 -277.13,160.00 -311.77,140.00 -311.77,100.00 -277.13,80.00" fill="#E8FFE8" stroke="#88CC88" stroke-width="1.5" stroke-dasharray="5,5" opacity="0.6"/>
  <polygon points="-277.13,160.00 -277.13,200.00 -311.77,220.00 -346.41,200.00 -346.41,160.00 -311.77,140.00" fill="#E8FFE8" stroke="#88CC88" stroke-width="1.5" stroke-dasharray="5,5" opacity="0.6"/>
  <polygon points="-34.64,-140.00 -34.64,-100.00 -69.28,-80.00 -103.92,-100.00 -103.92,-140.00 -69.28,-160.00" fill="#E8FFE8" stroke="#88CC88" stroke-width="1.5" stroke-dasharray="5,5" opacity="0.6"/>
  <polygon points="69.28,40.00 69.28,80.00 34.64,100.00 -0.00,80.00 0.00,40.00 34.64,20.00" fill="#E8FFE8" stroke="#88CC88" stroke-width="1.5" stroke-dasharray="5,5" opacity="0.6"/>
  <polygon points="-34.64,-260.00 -34.64,-220.00 -69.28,-200.00 -103.92,-220.00 -103.92,-260.00 -69.28,-280.00" fill="#E8FFE8" stroke="#88CC88" stroke-width="1.5" stroke-dasharray="5,5" opacity="0.6"/>
  <polygon points="207.85,40.00 207.85,80.00 173.21,100.00 138.56,80.00 138.56,40.00 173.21,20.00" fill="#E8FFE8" stroke="#88CC88" stroke-width="1.5" stroke-dasharray="5,5" opacity="0.6"/>
  <polygon points="-242.49,-20.00 -242.49,20.00 -277.13,40.00 -311.77,20.00 -311.77,-20.00 -277.13,-40.00" fill="#E8FFE8" stroke="#88CC88" stroke-width="1.5" stroke-dasharray="5,5" opacity="0.6"/>
  <polygon points="-138.56,160.00 -138.56,200.00 -173.21,220.00 -207.85,200.00 -207.85,160.00 -173.21,140.00" fill="#E8FFE8" stroke="#88CC88" stroke-width="1.5" stroke-dasharray="5,5" opacity="0.6"/>
  <polygon points="0.00,160.00 0.00,200.00 -34.64,220.00 -69.28,200.00 -69.28,160.00 -34.64,140.00" fill="#E8FFE8" stroke="#88CC88" stroke-width="1.5" stroke-dasharray="5,5" opacity="0.6"/>
  <polygon points="0.00,-440.00 0.00,-400.00 -34.64,-380.00 -69.28,-400.00 -69.28,-440.00 -34.64,-460.00" fill="#E8FFE8" stroke="#88CC88" stroke-width="1.5" stroke-dasharray="5,5" opacity="0.6"/>
  <polygon points="69.28,160.00 69.28,200.00 34.64,220.00 -0.00,200.00 0.00,160.00 34.64,140.00" fill="#E8FFE8" stroke="#88CC88" stroke-width="1.5" stroke-dasharray="5,5" opacity="0.6"/>
  <polygon points="242.49,-260.00 242.49,-220.00 207.85,-200.00 173.21,-220.00 173.21,-260.00 207.85,-280.00" fill="#E8FFE8" stroke="#88CC88" stroke-width="1.5" stroke-dasharray="5,5" opacity="0.6"/>
  <polygon points="-207.85,-80.00 -207.85,-40.00 -242.49,-20.00 -277.13,-40.00 -277.13,-80.00 -242.49,-100.00" fill="#E8FFE8" stroke="#88CC88" stroke-width="1.5" stroke-dasharray="5,5" opacity="0.6"/>
  <polygon points="-173.21,220.00 -173.21,260.00 -207.85,280.00 -242.49,260.00 -242.49,220.00 -207.85,200.00" fill="#E8FFE8" stroke="#88CC88" stroke-width="1.5" stroke-dasharray="5,5" opacity="0.6"/>
  <polygon points="-69.28,-320.00 -69.28,-280.00 -103.92,-260.00 -138.56,-280.00 -138.56,-320.00 -103.92,-340.00" fill="#E8FFE8" stroke="#88CC88" stroke-width="1.5" stroke-dasharray="5,5" opacity="0.6"/>
  <polygon points="138.56,40.00 138.56,80.00 103.92,100.00 69.28,80.00 69.28,40.00 103.92,20.00" fill="#E8FFE8" stroke="#88CC88" stroke-width="1.5" stroke-dasharray="5,5" opacity="0.6"/>
  <polygon points="34.64,-20.00 34.64,20.00 0.00,40.00 -34.64,20.00 -34.64,-20.00 -0.00,-40.00" fill="#F8F8F8" stroke="#888888" stroke-width="1.5"/>
    <polygon points="32.91,21.00 1.73,39.00 1.73,3.00" fill="#2E86AB" stroke="#2E86AB" stroke-width="0.5"/>
    <polygon points="-32.91,-21.00 -1.73,-39.00 -1.73,-3.00" fill="#2E86AB" stroke="#2E86AB" stroke-width="0.5"/>
  <polygon points="0.00,-80.00 0.00,-40.00 -34.64,-20.00 -69.28,-40.00 -69.28,-80.00 -34.64,-100.00" fill="#F8F8F8" stroke="#888888" stroke-width="1.5"/>
    <polygon points="0.00,-78.00 0.00,-42.00 -31.18,-60.00" fill="#E94F37" stroke="#E94F37" stroke-width="0.5"/>
    <polygon points="-69.28,-42.00 -69.28,-78.00 -38.11,-60.00" fill="#E94F37" stroke="#E94F37" stroke-width="0.5"/>
    <polygon points="-67.55,-81.00 -36.37,-99.00 -36.37,-63.00" fill="#E94F37" stroke="#E94F37" stroke-width="0.5"/>
  <polygon points="103.92,-20.00 103.92,20.00 69.28,40.00 34.64,20.00 34.64,-20.00 69.28,-40.00" fill="#F8F8F8" stroke="#888888" stroke-width="1.5"/>
    <polygon points="71.01,-39.00 102.19,-21.00 71.01,-3.00" fill="#2E86AB" stroke="#2E86AB" stroke-width="0.5"/>
    <polygon points="36.37,-21.00 67.55,-39.00 67.55,-3.00" fill="#2E86AB" stroke="#2E86AB" stroke-width="0.5"/>
  <polygon points="-69.28,-80.00 -69.28,-40.00 -103.92,-20.00 -138.56,-40.00 -138.56,-80.00 -103.92,-100.00" fill="#F8F8F8" stroke="#888888" stroke-width="1.5"/>
    <polygon points="-71.01,-39.00 -102.19,-21.00 -102.19,-57.00" fill="#E94F37" stroke="#E94F37" stroke-width="0.5"/>
    <polygon points="-105.66,-21.00 -136.83,-39.00 -105.66,-57.00" fill="#E94F37" stroke="#E94F37" stroke-width="0.5"/>
    <polygon points="-138.56,-42.00 -138.56,-78.00 -107.39,-60.00" fill="#E94F37" stroke="#E94F37" stroke-width="0.5"/>
  <polygon points="103.92,-140.00 103.92,-100.00 69.28,-80.00 34.64,-100.00 34.64,-140.00 69.28,-160.00" fill="#F8F8F8" stroke="#888888" stroke-width="1.5"/>
    <polygon points="71.01,-159.00 102.19,-141.00 71.01,-123.00" fill="#2E86AB" stroke="#2E86AB" stroke-width="0.5"/>
    <polygon points="103.92,-138.00 103.92,-102.00 72.75,-120.00" fill="#2E86AB" stroke="#2E86AB" stroke-width="0.5"/>
    <polygon points="67.55,-81.00 36.37,-99.00 67.55,-117.00" fill="#2E86AB" stroke="#2E86AB" stroke-width="0.5"/>
    <polygon points="34.64,-102.00 34.64,-138.00 65.82,-120.00" fill="#2E86AB" stroke="#2E86AB" stroke-width="0.5"/>
  <polygon points="-103.92,-20.00 -103.92,20.00 -138.56,40.00 -173.21,20.00 -173.21,-20.00 -138.56,-40.00" fill="#F8F8F8" stroke="#888888" stroke-width="1.5"/>
    <polygon points="-103.92,-18.00 -103.92,18.00 -135.10,0.00" fill="#E94F37" stroke="#E94F37" stroke-width="0.5"/>
    <polygon points="-105.66,21.00 -136.83,39.00 -136.83,3.00" fill="#E94F37" stroke="#E94F37" stroke-width="0.5"/>
    <polygon points="-140.30,39.00 -171.47,21.00 -140.30,3.00" fill="#E94F37" stroke="#E94F37" stroke-width="0.5"/>
    <polygon points="-171.47,-21.00 -140.30,-39.00 -140.30,-3.00" fill="#E94F37" stroke="#E94F37" stroke-width="0.5"/>
  <polygon points="138.56,-80.00 138.56,-40.00 103.92,-20.00 69.28,-40.00 69.28,-80.00 103.92,-100.00" fill="#F8F8F8" stroke="#888888" stroke-width="1.5"/>
    <polygon points="105.66,-99.00 136.83,-81.00 105.66,-63.00" fill="#2E86AB" stroke="#2E86AB" stroke-width="0.5"/>
    <polygon points="138.56,-78.00 138.56,-42.00 107.39,-60.00" fill="#2E86AB" stroke="#2E86AB" stroke-width="0.5"/>
    <polygon points="102.19,-21.00 71.01,-39.00 102.19,-57.00" fill="#2E86AB" stroke="#2E86AB" stroke-width="0.5"/>
    <polygon points="71.01,-81.00 102.19,-99.00 102.19,-63.00" fill="#2E86AB" stroke="#2E86AB" stroke-width="0.5"/>
  <polygon points="-69.28,40.00 -69.28,80.00 -103.92,100.00 -138.56,80.00 -138.56,40.00 -103.92,20.00" fill="#F8F8F8" stroke="#888888" stroke-width="1.5"/>
    <polygon points="-102.19,21.00 -71.01,39.00 -102.19,57.00" fill="#E94F37" stroke="#E94F37" stroke-width="0.5"/>
    <polygon points="-71.01,81.00 -102.19,99.00 -102.19,63.00" fill="#E94F37" stroke="#E94F37" stroke-width="0.5"/>
    <polygon points="-138.56,78.00 -138.56,42.00 -107.39,60.00" fill="#E94F37" stroke="#E94F37" stroke-width="0.5"/>
  <polygon points="138.56,-200.00 138.56,-160.00 103.92,-140.00 69.28,-160.00 69.28,-200.00 103.92,-220.00" fill="#F8F8F8" stroke="#888888" stroke-width="1.5"/>
    <polygon points="105.66,-219.00 136.83,-201.00 105.66,-183.00" fill="#2E86AB" stroke="#2E86AB" stroke-width="0.5"/>
    <polygon points="136.83,-159.00 105.66,-141.00 105.66,-177.00" fill="#2E86AB" stroke="#2E86AB" stroke-width="0.5"/>
    <polygon points="69.28,-162.00 69.28,-198.00 100.46,-180.00" fill="#2E86AB" stroke="#2E86AB" stroke-width="0.5"/>
  <polygon points="0.00,40.00 0.00,80.00 -34.64,100.00 -69.28,80.00 -69.28,40.00 -34.64,20.00" fill="#F8F8F8" stroke="#888888" stroke-width="1.5"/>
    <polygon points="-32.91,21.00 -1.73,39.00 -32.91,57.00" fill="#E94F37" stroke="#E94F37" stroke-width="0.5"/>
    <polygon points="-1.73,81.00 -32.91,99.00 -32.91,63.00" fill="#E94F37" stroke="#E94F37" stroke-width="0.5"/>
    <polygon points="-36.37,99.00 -67.55,81.00 -36.37,63.00" fill="#E94F37" stroke="#E94F37" stroke-width="0.5"/>
    <polygon points="-67.55,39.00 -36.37,21.00 -36.37,57.00" fill="#E94F37" stroke="#E94F37" stroke-width="0.5"/>
  <polygon points="103.92,-260.00 103.92,-220.00 69.28,-200.00 34.64,-220.00 34.64,-260.00 69.28,-280.00" fill="#F8F8F8" stroke="#888888" stroke-width="1.5"/>
    <polygon points="71.01,-279.00 102.19,-261.00 71.01,-243.00" fill="#2E86AB" stroke="#2E86AB" stroke-width="0.5"/>
    <polygon points="103.92,-258.00 103.92,-222.00 72.75,-240.00" fill="#2E86AB" stroke="#2E86AB" stroke-width="0.5"/>
    <polygon points="102.19,-219.00 71.01,-201.00 71.01,-237.00" fill="#2E86AB" stroke="#2E86AB" stroke-width="0.5"/>
    <polygon points="67.55,-201.00 36.37,-219.00 67.55,-237.00" fill="#2E86AB" stroke="#2E86AB" stroke-width="0.5"/>
    <polygon points="34.64,-222.00 34.64,-258.00 65.82,-240.00" fill="#2E86AB" stroke="#2E86AB" stroke-width="0.5"/>
    <polygon points="36.37,-261.00 67.55,-279.00 67.55,-243.00" fill="#2E86AB" stroke="#2E86AB" stroke-width="0.5"/>
  <polygon points="-103.92,100.00 -103.92,140.00 -138.56,160.00 -173.21,140.00 -173.21,100.00 -138.56,80.00" fill="#F8F8F8" stroke="#888888" stroke-width="1.5"/>
    <polygon points="-136.83,81.00 -105.66,99.00 -136.83,117.00" fill="#E94F37" stroke="#E94F37" stroke-width="0.5"/>
    <polygon points="-103.92,102.00 -103.92,138.00 -135.10,120.00" fill="#E94F37" stroke="#E94F37" stroke-width="0.5"/>
    <polygon points="-105.66,141.00 -136.83,159.00 -136.83,123.00" fill="#E94F37" stroke="#E94F37" stroke-width="0.5"/>
    <polygon points="-173.21,138.00 -173.21,102.00 -142.03,120.00" fill="#E94F37" stroke="#E94F37" stroke-width="0.5"/>
    <polygon points="-171.47,99.00 -140.30,81.00 -140.30,117.00" fill="#E94F37" stroke="#E94F37" stroke-width="0.5"/>
  <polygon points="69.28,-200.00 69.28,-160.00 34.64,-140.00 -0.00,-160.00 0.00,-200.00 34.64,-220.00" fill="#F8F8F8" stroke="#888888" stroke-width="1.5"/>
    <polygon points="36.37,-219.00 67.55,-201.00 36.37,-183.00" fill="#2E86AB" stroke="#2E86AB" stroke-width="0.5"/>
    <polygon points="69.28,-198.00 69.28,-162.00 38.11,-180.00" fill="#2E86AB" stroke="#2E86AB" stroke-width="0.5"/>
    <polygon points="32.91,-141.00 1.73,-159.00 32.91,-177.00" fill="#2E86AB" stroke="#2E86AB" stroke-width="0.5"/>
    <polygon points="-0.00,-162.00 -0.00,-198.00 31.18,-180.00" fill="#2E86AB" stroke="#2E86AB" stroke-width="0.5"/>
    <polygon points="1.73,-201.00 32.91,-219.00 32.91,-183.00" fill="#2E86AB" stroke="#2E86AB" stroke-width="0.5"/>
  <polygon points="-34.64,100.00 -34.64,140.00 -69.28,160.00 -103.92,140.00 -103.92,100.00 -69.28,80.00" fill="#F8F8F8" stroke="#888888" stroke-width="1.5"/>
    <polygon points="-102.19,99.00 -71.01,81.00 -71.01,117.00" fill="#E94F37" stroke="#E94F37" stroke-width="0.5"/>
  <polygon points="34.64,-260.00 34.64,-220.00 0.00,-200.00 -34.64,-220.00 -34.64,-260.00 -0.00,-280.00" fill="#F8F8F8" stroke="#888888" stroke-width="1.5"/>
    <polygon points="1.73,-279.00 32.91,-261.00 1.73,-243.00" fill="#2E86AB" stroke="#2E86AB" stroke-width="0.5"/>
    <polygon points="32.91,-219.00 1.73,-201.00 1.73,-237.00" fill="#2E86AB" stroke="#2E86AB" stroke-width="0.5"/>
    <polygon points="-1.73,-201.00 -32.91,-219.00 -1.73,-237.00" fill="#2E86AB" stroke="#2E86AB" stroke-width="0.5"/>
  <polygon points="-173.21,100.00 -173.21,140.00 -207.85,160.00 -242.49,140.00 -242.49,100.00 -207.85,80.00" fill="#F8F8F8" stroke="#888888" stroke-width="1.5"/>
    <polygon points="-174.94,141.00 -206.11,159.00 -206.11,123.00" fill="#E94F37" stroke="#E94F37" stroke-width="0.5"/>
    <polygon points="-242.49,138.00 -242.49,102.00 -211.31,120.00" fill="#E94F37" stroke="#E94F37" stroke-width="0.5"/>
  <polygon points="0.00,-320.00 0.00,-280.00 -34.64,-260.00 -69.28,-280.00 -69.28,-320.00 -34.64,-340.00" fill="#F8F8F8" stroke="#888888" stroke-width="1.5"/>
    <polygon points="-32.91,-339.00 -1.73,-321.00 -32.91,-303.00" fill="#2E86AB" stroke="#2E86AB" stroke-width="0.5"/>
    <polygon points="-36.37,-261.00 -67.55,-279.00 -36.37,-297.00" fill="#2E86AB" stroke="#2E86AB" stroke-width="0.5"/>
    <polygon points="-69.28,-282.00 -69.28,-318.00 -38.11,-300.00" fill="#2E86AB" stroke="#2E86AB" stroke-width="0.5"/>
  <polygon points="34.64,-140.00 34.64,-100.00 0.00,-80.00 -34.64,-100.00 -34.64,-140.00 -0.00,-160.00" fill="#F8F8F8" stroke="#888888" stroke-width="1.5"/>
    <polygon points="1.73,-159.00 32.91,-141.00 1.73,-123.00" fill="#E94F37" stroke="#E94F37" stroke-width="0.5"/>
    <polygon points="34.64,-138.00 34.64,-102.00 3.46,-120.00" fill="#E94F37" stroke="#E94F37" stroke-width="0.5"/>
    <polygon points="-34.64,-102.00 -34.64,-138.00 -3.46,-120.00" fill="#E94F37" stroke="#E94F37" stroke-width="0.5"/>
  <polygon points="173.21,-260.00 173.21,-220.00 138.56,-200.00 103.92,-220.00 103.92,-260.00 138.56,-280.00" fill="#F8F8F8" stroke="#888888" stroke-width="1.5"/>
    <polygon points="140.30,-279.00 171.47,-261.00 140.30,-243.00" fill="#2E86AB" stroke="#2E86AB" stroke-width="0.5"/>
    <polygon points="173.21,-258.00 173.21,-222.00 142.03,-240.00" fill="#2E86AB" stroke="#2E86AB" stroke-width="0.5"/>
    <polygon points="105.66,-261.00 136.83,-279.00 136.83,-243.00" fill="#2E86AB" stroke="#2E86AB" stroke-width="0.5"/>
  <polygon points="-138.56,40.00 -138.56,80.00 -173.21,100.00 -207.85,80.00 -207.85,40.00 -173.21,20.00" fill="#F8F8F8" stroke="#888888" stroke-width="1.5"/>
    <polygon points="-171.47,21.00 -140.30,39.00 -171.47,57.00" fill="#E94F37" stroke="#E94F37" stroke-width="0.5"/>
    <polygon points="-174.94,99.00 -206.11,81.00 -174.94,63.00" fill="#E94F37" stroke="#E94F37" stroke-width="0.5"/>
  <polygon points="138.56,-320.00 138.56,-280.00 103.92,-260.00 69.28,-280.00 69.28,-320.00 103.92,-340.00" fill="#F8F8F8" stroke="#888888" stroke-width="1.5"/>
    <polygon points="138.56,-318.00 138.56,-282.00 107.39,-300.00" fill="#2E86AB" stroke="#2E86AB" stroke-width="0.5"/>
    <polygon points="136.83,-279.00 105.66,-261.00 105.66,-297.00" fill="#2E86AB" stroke="#2E86AB" stroke-width="0.5"/>
    <polygon points="102.19,-261.00 71.01,-279.00 102.19,-297.00" fill="#2E86AB" stroke="#2E86AB" stroke-width="0.5"/>
    <polygon points="69.28,-282.00 69.28,-318.00 100.46,-300.00" fill="#2E86AB" stroke="#2E86AB" stroke-width="0.5"/>
  <polygon points="-173.21,-20.00 -173.21,20.00 -207.85,40.00 -242.49,20.00 -242.49,-20.00 -207.85,-40.00" fill="#F8F8F8" stroke="#888888" stroke-width="1.5"/>
    <polygon points="-173.21,-18.00 -173.21,18.00 -204.38,0.00" fill="#E94F37" stroke="#E94F37" stroke-width="0.5"/>
    <polygon points="-174.94,21.00 -206.11,39.00 -206.11,3.00" fill="#E94F37" stroke="#E94F37" stroke-width="0.5"/>
    <polygon points="-209.58,39.00 -240.76,21.00 -209.58,3.00" fill="#E94F37" stroke="#E94F37" stroke-width="0.5"/>
    <polygon points="-242.49,18.00 -242.49,-18.00 -211.31,-0.00" fill="#E94F37" stroke="#E94F37" stroke-width="0.5"/>
  <polygon points="173.21,-20.00 173.21,20.00 138.56,40.00 103.92,20.00 103.92,-20.00 138.56,-40.00" fill="#F8F8F8" stroke="#888888" stroke-width="1.5"/>
    <polygon points="140.30,-39.00 171.47,-21.00 140.30,-3.00" fill="#2E86AB" stroke="#2E86AB" stroke-width="0.5"/>
  <polygon points="-207.85,160.00 -207.85,200.00 -242.49,220.00 -277.13,200.00 -277.13,160.00 -242.49,140.00" fill="#F8F8F8" stroke="#888888" stroke-width="1.5"/>
    <polygon points="-240.76,141.00 -209.58,159.00 -240.76,177.00" fill="#E94F37" stroke="#E94F37" stroke-width="0.5"/>
    <polygon points="-207.85,162.00 -207.85,198.00 -239.02,180.00" fill="#E94F37" stroke="#E94F37" stroke-width="0.5"/>
    <polygon points="-209.58,201.00 -240.76,219.00 -240.76,183.00" fill="#E94F37" stroke="#E94F37" stroke-width="0.5"/>
    <polygon points="-244.22,219.00 -275.40,201.00 -244.22,183.00" fill="#E94F37" stroke="#E94F37" stroke-width="0.5"/>
    <polygon points="-277.13,198.00 -277.13,162.00 -245.95,180.00" fill="#E94F37" stroke="#E94F37" stroke-width="0.5"/>
    <polygon points="-275.40,159.00 -244.22,141.00 -244.22,177.00" fill="#E94F37" stroke="#E94F37" stroke-width="0.5"/>
  <polygon points="-34.64,-380.00 -34.64,-340.00 -69.28,-320.00 -103.92,-340.00 -103.92,-380.00 -69.28,-400.00" fill="#F8F8F8" stroke="#888888" stroke-width="1.5"/>
    <polygon points="-71.01,-321.00 -102.19,-339.00 -71.01,-357.00" fill="#2E86AB" stroke="#2E86AB" stroke-width="0.5"/>
    <polygon points="-102.19,-381.00 -71.01,-399.00 -71.01,-363.00" fill="#2E86AB" stroke="#2E86AB" stroke-width="0.5"/>
  <polygon points="34.64,100.00 34.64,140.00 0.00,160.00 -34.64,140.00 -34.64,100.00 -0.00,80.00" fill="#F8F8F8" stroke="#888888" stroke-width="1.5"/>
    <polygon points="1.73,81.00 32.91,99.00 1.73,117.00" fill="#E94F37" stroke="#E94F37" stroke-width="0.5"/>
    <polygon points="34.64,102.00 34.64,138.00 3.46,120.00" fill="#E94F37" stroke="#E94F37" stroke-width="0.5"/>
  <rect x="-371.77" y="310.00" width="639.62" height="50.00" fill="#F0F0F0" rx="5"/>
  <rect x="-356.77" y="323.00" width="24.00" height="24.00" fill="#2E86AB" rx="3"/>
  <text x="-322.77" y="340.00" font-size="16" font-family="system-ui, sans-serif" text-anchor="start" fill="#333333" font-weight="bold">Player 1: 14</text>
  <rect x="117.85" y="323.00" width="24.00" height="24.00" fill="#E94F37" rx="3"/>
  <text x="151.85" y="340.00" font-size="16" font-family="system-ui, sans-serif" text-anchor="start" fill="#333333" font-weight="bold">Player 2: 13</text>
</svg>