<?xml version="1.0" encoding="UTF-8"?>
<svg xmlns="http://www.w3.org/2000/svg"
     width="729" height="740"
     viewBox="-451.05 -310.00 728.90 740.00">
  <rect x="-451.05" y="-310.00" width="728.90" height="740.00" fill="#FFFFFF"/>
  <polygon points="173.21,-140.00 173.21,-100.00 138.56,-80.00 103.92,-100.00 103.92,-140.00 138.56,-160.00" fill="#E8FFE8" stroke="#88CC88" stroke-width="1.5" stroke-dasharray="5,5" opacity="0.6"/>
  <polygon points="207.85,-80.00 207.85,-40.00 173.21,-20.00 138.56,-40.00 138.56,-80.00 173.21,-100.00" fill="#E8FFE8" stroke="#88CC88" stroke-width="1.5" stroke-dasharray="5,5" opacity="0.6"/>
  <polygon points="-311.77,-20.00 -311.77,20.00 -346.41,40.00 -381.05,20.00 -381.05,-20.00 -346.41,-40.00" fill="#E8FFE8" stroke="#88CC88" stroke-width="1.5" stroke-dasharray="5,5" opacity="0.6"/>
  <polygon points="-277.13,-200.00 -277.13,-160.00 -311.77,-140.00 -346.41,-160.00 -346.41,-200.00 -311.77,-220.00" fill="#E8FFE8" stroke="#88CC88" stroke-width="1.5" stroke-dasharray="5,5" opacity="0.6"/>
  <polygon points="-242.49,220.00 -242.49,260.00 -277.13,280.00 -311.77,260.00 -311.77,220.00 -277.13,200.00" fill="#E8FFE8" stroke="#88CC88" stroke-width="1.5" stroke-dasharray="5,5" opacity="0.6"/>
  <polygon points="-173.21,-20.00 -173.21,20.00 -207.85,40.00 -242.49,20.00 -242.49,-20.00 -207.85,-40.00" fill="#E8FFE8" stroke="#88CC88" stroke-width="1.5" stroke-dasharray="5,5" opacity="0.6"/>
  <polygon points="-69.28,160.00 -69.28,200.00 -103.92,220.00 -138.56,200.00 -138.56,160.00 -103.92,140.00" fill="#E8FFE8" stroke="#88CC88" stroke-width="1.5" stroke-dasharray="5,5" opacity="0.6"/>
  <polygon points="-103.92,-260.00 -103.92,-220.00 -138.56,-200.00 -173.21,-220.00 -173.21,-260.00 -138.56,-280.00" fill="#E8FFE8" stroke="#88CC88" stroke-width="1.5" stroke-dasharray="5,5" opacity="0.6"/>
  <polygon points="103.92,100.00 103.92,140.00 69.28,160.00 34.64,140.00 34.64,100.00 69.28,80.00" fill="#E8FFE8" stroke="#88CC88" stroke-width="1.5" stroke-dasharray="5,5" opacity="0.6"/>
  <polygon points="0.00,-200.00 0.00,-160.00 -34.64,-140.00 -69.28,-160.00 -69.28,-200.00 -34.64,-220.00" fill="#E8FFE8" stroke="#88CC88" stroke-width="1.5" stroke-dasharray="5,5" opacity="0.6"/>
  <polygon points="103.92,-20.00 103.92,20.00 69.28,40.00 34.64,20.00 34.64,-20.00 69.28,-40.00" fill="#E8FFE8" stroke="#88CC88" stroke-width="1.5" stroke-dasharray="5,5" opacity="0.6"/>
  <polygon points="-311.77,-140.00 -311.77,-100.00 -346.41,-80.00 -381.05,-100.00 -381.05,-140.00 -346.41,-160.00" fill="#E8FFE8" stroke="#88CC88" stroke-width="1.5" stroke-dasharray="5,5" opacity="0.6"/>
  <polygon points="-103.92,220.00 -103.92,260.00 -138.56,280.00 -173.21,260.00 -173.21,220.00 -138.56,200.00" fill="#E8FFE8" stroke="#88CC88" stroke-width="1.5" stroke-dasharray="5,5" opacity="0.6"/>
  <polygon points="-173.21,-140.00 -173.21,-100.00 -207.85,-80.00 -242.49,-100.00 -242.49,-140.00 -207.85,-160.00" fill="#E8FFE8" stroke="#88CC88" stroke-width="1.5" stroke-dasharray="5,5" opacity="0.6"/>
  <polygon points="34.64,220.00 34.64,260.00 0.00,280.00 -34.64,260.00 -34.64,220.00 -0.00,200.00" fill="#E8FFE8" stroke="#88CC88" stroke-width="1.5" stroke-dasharray="5,5" opacity="0.6"/>
  <polygon points="0.00,40.00 0.00,80.00 -34.64,100.00 -69.28,80.00 -69.28,40.00 -34.64,20.00" fill="#E8FFE8" stroke="#88CC88" stroke-width="1.5" stroke-dasharray="5,5" opacity="0.6"/>
  <polygon points="138.56,-200.00 138.56,-160.00 103.92,-140.00 69.28,-160.00 69.28,-200.00 103.92,-220.00" fill="#E8FFE8" stroke="#88CC88" stroke-width="1.5" stroke-dasharray="5,5" opacity="0.6"/>
  <polygon points="242.49,-20.00 242.49,20.00 207.85,40.00 173.21,20.00 173.21,-20.00 207.85,-40.00" fill="#E8FFE8" stroke="#88CC88" stroke-width="1.5" stroke-dasharray="5,5" opacity="0.6"/>
  <polygon points="-277.13,160.00 -277.13,200.00 -311.77,220.00 -346.41,200.00 -346.41,160.00 -311.77,140.00" fill="#E8FFE8" stroke="#88CC88" stroke-width="1.5" stroke-dasharray="5,5" opacity="0.6"/>
  <polygon points="0.00,280.00 0.00,320.00 -34.64,340.00 -69.28,320.00 -69.28,280.00 -34.64,260.00" fill="#E8FFE8" stroke="#88CC88" stroke-width="1.5" stroke-dasharray="5,5" opacity="0.6"/>
  <polygon points="69.28,40.00 69.28,80.00 34.64,100.00 -0.00,80.00 0.00,40.00 34.64,20.00" fill="#E8FFE8" stroke="#88CC88" stroke-width="1.5" stroke-dasharray="5,5" opacity="0.6"/>
  <polygon points="-34.64,-260.00 -34.64,-220.00 -69.28,-200.00 -103.92,-220.00 -103.92,-260.00 -69.28,-280.00" fill="#E8FFE8" stroke="#88CC88" stroke-width="1.5" stroke-dasharray="5,5" opacity="0.6"/>
  <polygon points="207.85,40.00 207.85,80.00 173.21,100.00 138.56,80.00 138.56,40.00 173.21,20.00" fill="#E8FFE8" stroke="#88CC88" stroke-width="1.5" stroke-dasharray="5,5" opacity="0.6"/>
  <polygon points="-242.49,-20.00 -242.49,20.00 -277.13,40.00 -311.77,20.00 -311.77,-20.00 -277.13,-40.00" fill="#E8FFE8" stroke="#88CC88" stroke-width="1.5" stroke-dasharray="5,5" opacity="0.6"/>
  <polygon points="-138.56,-200.00 -138.56,-160.00 -173.21,-140.00 -207.85,-160.00 -207.85,-200.00 -173.21,-220.00" fill="#E8FFE8" stroke="#88CC88" stroke-width="1.5" stroke-dasharray="5,5" opacity="0.6"/>
  <polygon points="-207.85,-200.00 -207.85,-160.00 -242.49,-140.00 -277.13,-160.00 -277.13,-200.00 -242.49,-220.00" fill="#E8FFE8" stroke="#88CC88" stroke-width="1.5" stroke-dasharray="5,5" opacity="0.6"/>
  <polygon points="-138.56,160.00 -138.56,200.00 -173.21,220.00 -207.85,200.00 -207.85,160.00 -173.21,140.00" fill="#E8FFE8" stroke="#88CC88" stroke-width="1.5" stroke-dasharray="5,5" opacity="0.6"/>
  <polygon points="-103.92,-20.00 -103.92,20.00 -138.56,40.00 -173.21,20.00 -173.21,-20.00 -138.56,-40.00" fill="#E8FFE8" stroke="#88CC88" stroke-width="1.5" stroke-dasharray="5,5" opacity="0.6"/>
  <polygon points="69.28,160.00 69.28,200.00 34.64,220.00 -0.00,200.00 0.00,160.00 34.64,140.00" fill="#E8FFE8" stroke="#88CC88" stroke-width="1.5" stroke-dasharray="5,5" opacity="0.6"/>
  <polygon points="-346.41,-80.00 -346.41,-40.00 -381.05,-20.00 -415.69,-40.00 -415.69,-80.00 -381.05,-100.00" fill="#E8FFE8" stroke="#88CC88" stroke-width="1.5" stroke-dasharray="5,5" opacity="0.6"/>
  <polygon points="-311.77,100.00 -311.77,140.00 -346.41,160.00 -381.05,140.00 -381.05,100.00 -346.41,80.00" fill="#E8FFE8" stroke="#88CC88" stroke-width="1.5" stroke-dasharray="5,5" opacity="0.6"/>
  <polygon points="-277.13,40.00 -277.13,80.00 -311.77,100.00 -346.41,80.00 -346.41,40.00 -311.77,20.00" fill="#E8FFE8" stroke="#88CC88" stroke-width="1.5" stroke-dasharray="5,5" opacity="0.6"/>
  <polygon points="-173.21,220.00 -173.21,260.00 -207.85,280.00 -242.49,260.00 -242.49,220.00 -207.85,200.00" fill="#E8FFE8" stroke="#88CC88" stroke-width="1.5" stroke-dasharray="5,5" opacity="0.6"/>
  <polygon points="69.28,-200.00 69.28,-160.00 34.64,-140.00 -0.00,-160.00 0.00,-200.00 34.64,-220.00" fill="#E8FFE8" stroke="#88CC88" stroke-width="1.5" stroke-dasharray="5,5" opacity="0.6"/>
  <polygon points="138.56,40.00 138.56,80.00 103.92,100.00 69.28,80.00 69.28,40.00 103.92,20.00" fill="#E8FFE8" stroke="#88CC88" stroke-width="1.5" stroke-dasharray="5,5" opacity="0.6"/>
  <polygon points="34.64,-140.00 34.64,-100.00 0.00,-80.00 -34.64,-100.00 -34.64,-140.00 -0.00,-160.00" fill="#E8FFE8" stroke="#88CC88" stroke-width="1.5" stroke-dasharray="5,5" opacity="0.6"/>
  <polygon points="-69.28,280.00 -69.28,320.00 -103.92,340.00 -138.56,320.00 -138.56,280.00 -103.92,260.00" fill="#E8FFE8" stroke="#88CC88" stroke-width="1.5" stroke-dasharray="5,5" opacity="0.6"/>
  <polygon points="34.64,-20.00 34.64,20.00 0.00,40.00 -34.64,20.00 -34.64,-20.00 -0.00,-40.00" fill="#F8F8F8" stroke="#888888" stroke-width="1.5"/>
    <polygon points="-34.64,18.00 -34.64,-18.00 -3.46,-0.00" fill="#2E86AB" stroke="#2E86AB" stroke-width="0.5"/>
    <text x="0.00" y="4.00" font-size="10" font-family="system-ui, sans-serif" text-anchor="middle" fill="#666666" font-weight="normal">(0,0)</text>
  <polygon points="0.00,-80.00 0.00,-40.00 -34.64,-20.00 -69.28,-40.00 -69.28,-80.00 -34.64,-100.00" fill="#F8F8F8" stroke="#888888" stroke-width="1.5"/>
    <polygon points="0.00,-78.00 0.00,-42.00 -31.18,-60.00" fill="#E94F37" stroke="#E94F37" stroke-width="0.5"/>
    <polygon points="-69.28,-42.00 -69.28,-78.00 -38.11,-60.00" fill="#E94F37" stroke="#E94F37" stroke-width="0.5"/>
    <text x="-34.64" y="-56.00" font-size="10" font-family="system-ui, sans-serif" text-anchor="middle" fill="#666666" font-weight="normal">(0,-1)</text>
  <polygon points="-34.64,-20.00 -34.64,20.00 -69.28,40.00 -103.92,20.00 -103.92,-20.00 -69.28,-40.00" fill="#F8F8F8" stroke="#888888" stroke-width="1.5"/>
    <polygon points="-34.64,-18.00 -34.64,18.00 -65.82,0.00" fill="#2E86AB" stroke="#2E86AB" stroke-width="0.5"/>
    <polygon points="-71.01,39.00 -102.19,21.00 -71.01,3.00" fill="#2E86AB" stroke="#2E86AB" stroke-width="0.5"/>
    <text x="-69.28" y="4.00" font-size="10" font-family="system-ui, sans-serif" text-anchor="middle" fill="#666666" font-weight="normal">(-1,0)</text>
  <polygon points="69.28,-80.00 69.28,-40.00 34.64,-20.00 -0.00,-40.00 0.00,-80.00 34.64,-100.00" fill="#F8F8F8" stroke="#888888" stroke-width="1.5"/>
    <polygon points="36.37,-99.00 67.55,-81.00 36.37,-63.00" fill="#E94F37" stroke="#E94F37" stroke-width="0.5"/>
    <polygon points="69.28,-78.00 69.28,-42.00 38.11,-60.00" fill="#E94F37" stroke="#E94F37" stroke-width="0.5"/>
    <polygon points="-0.00,-42.00 -0.00,-78.00 31.18,-60.00" fill="#E94F37" stroke="#E94F37" stroke-width="0.5"/>
    <text x="34.64" y="-56.00" font-size="10" font-family="system-ui, sans-serif" text-anchor="middle" fill="#666666" font-weight="normal">(1,-1)</text>
  <polygon points="-69.28,40.00 -69.28,80.00 -103.92,100.00 -138.56,80.00 -138.56,40.00 -103.92,20.00" fill="#F8F8F8" stroke="#888888" stroke-width="1.5"/>
    <polygon points="-136.83,39.00 -105.66,21.00 -105.66,57.00" fill="#2E86AB" stroke="#2E86AB" stroke-width="0.5"/>
    <polygon points="-102.19,21.00 -71.01,39.00 -102.19,57.00" fill="#2E86AB" stroke="#2E86AB" stroke-width="0.5"/>
    <polygon points="-71.01,81.00 -102.19,99.00 -102.19,63.00" fill="#2E86AB" stroke="#2E86AB" stroke-width="0.5"/>
    <polygon points="-105.66,99.00 -136.83,81.00 -105.66,63.00" fill="#2E86AB" stroke="#2E86AB" stroke-width="0.5"/>
    <text x="-103.92" y="64.00" font-size="10" font-family="system-ui, sans-serif" text-anchor="middle" fill="#666666" font-weight="normal">(-2,1)</text>
  <polygon points="-69.28,-80.00 -69.28,-40.00 -103.92,-20.00 -138.56,-40.00 -138.56,-80.00 -103.92,-100.00" fill="#F8F8F8" stroke="#888888" stroke-width="1.5"/>
    <polygon points="-136.83,-81.00 -105.66,-99.00 -105.66,-63.00" fill="#E94F37" stroke="#E94F37" stroke-width="0.5"/>
    <polygon points="-69.28,-78.00 -69.28,-42.00 -100.46,-60.00" fill="#E94F37" stroke="#E94F37" stroke-width="0.5"/>
    <polygon points="-105.66,-21.00 -136.83,-39.00 -105.66,-57.00" fill="#E94F37" stroke="#E94F37" stroke-width="0.5"/>
    <text x="-103.92" y="-56.00" font-size="10" font-family="system-ui, sans-serif" text-anchor="middle" fill="#666666" font-weight="normal">(-1,-1)</text>
  <polygon points="-34.64,100.00 -34.64,140.00 -69.28,160.00 -103.92,140.00 -103.92,100.00 -69.28,80.00" fill="#F8F8F8" stroke="#888888" stroke-width="1.5"/>
    <polygon points="-102.19,99.00 -71.01,81.00 -71.01,117.00" fill="#2E86AB" stroke="#2E86AB" stroke-width="0.5"/>
    <polygon points="-67.55,81.00 -36.37,99.00 -67.55,117.00" fill="#2E86AB" stroke="#2E86AB" stroke-width="0.5"/>
    <polygon points="-34.64,102.00 -34.64,138.00 -65.82,120.00" fill="#2E86AB" stroke="#2E86AB" stroke-width="0.5"/>
    <polygon points="-36.37,141.00 -67.55,159.00 -67.55,123.00" fill="#2E86AB" stroke="#2E86AB" stroke-width="0.5"/>
    <polygon points="-103.92,138.00 -103.92,102.00 -72.75,120.00" fill="#2E86AB" stroke="#2E86AB" stroke-width="0.5"/>
    <text x="-69.28" y="124.00" font-size="10" font-family="system-ui, sans-serif" text-anchor="middle" fill="#666666" font-weight="normal">(-2,2)</text>
  <polygon points="-103.92,-140.00 -103.92,-100.00 -138.56,-80.00 -173.21,-100.00 -173.21,-140.00 -138.56,-160.00" fill="#F8F8F8" stroke="#888888" stroke-width="1.5"/>
    <polygon points="-136.83,-159.00 -105.66,-141.00 -136.83,-123.00" fill="#E94F37" stroke="#E94F37" stroke-width="0.5"/>
    <polygon points="-103.92,-138.00 -103.92,-102.00 -135.10,-120.00" fill="#E94F37" stroke="#E94F37" stroke-width="0.5"/>
    <polygon points="-105.66,-99.00 -136.83,-81.00 -136.83,-117.00" fill="#E94F37" stroke="#E94F37" stroke-width="0.5"/>
    <polygon points="-140.30,-81.00 -171.47,-99.00 -140.30,-117.00" fill="#E94F37" stroke="#E94F37" stroke-width="0.5"/>
    <text x="-138.56" y="-116.00" font-size="10" font-family="system-ui, sans-serif" text-anchor="middle" fill="#666666" font-weight="normal">(-1,-2)</text>
  <polygon points="-103.92,100.00 -103.92,140.00 -138.56,160.00 -173.21,140.00 -173.21,100.00 -138.56,80.00" fill="#F8F8F8" stroke="#888888" stroke-width="1.5"/>
    <polygon points="-136.83,81.00 -105.66,99.00 -136.83,117.00" fill="#2E86AB" stroke="#2E86AB" stroke-width="0.5"/>
    <polygon points="-103.92,102.00 -103.92,138.00 -135.10,120.00" fill="#2E86AB" stroke="#2E86AB" stroke-width="0.5"/>
    <polygon points="-173.21,138.00 -173.21,102.00 -142.03,120.00" fill="#2E86AB" stroke="#2E86AB" stroke-width="0.5"/>
    <text x="-138.56" y="124.00" font-size="10" font-family="system-ui, sans-serif" text-anchor="middle" fill="#666666" font-weight="normal">(-3,2)</text>
  <polygon points="-69.28,-200.00 -69.28,-160.00 -103.92,-140.00 -138.56,-160.00 -138.56,-200.00 -103.92,-220.00" fill="#F8F8F8" stroke="#888888" stroke-width="1.5"/>
    <polygon points="-136.83,-201.00 -105.66,-219.00 -105.66,-183.00" fill="#E94F37" stroke="#E94F37" stroke-width="0.5"/>
    <polygon points="-69.28,-198.00 -69.28,-162.00 -100.46,-180.00" fill="#E94F37" stroke="#E94F37" stroke-width="0.5"/>
    <polygon points="-71.01,-159.00 -102.19,-141.00 -102.19,-177.00" fill="#E94F37" stroke="#E94F37" stroke-width="0.5"/>
    <polygon points="-105.66,-141.00 -136.83,-159.00 -105.66,-177.00" fill="#E94F37" stroke="#E94F37" stroke-width="0.5"/>
    <text x="-103.92" y="-176.00" font-size="10" font-family="system-ui, sans-serif" text-anchor="middle" fill="#666666" font-weight="normal">(0,-3)</text>
  <polygon points="34.64,100.00 34.64,140.00 0.00,160.00 -34.64,140.00 -34.64,100.00 -0.00,80.00" fill="#F8F8F8" stroke="#888888" stroke-width="1.5"/>
    <polygon points="34.64,102.00 34.64,138.00 3.46,120.00" fill="#2E86AB" stroke="#2E86AB" stroke-width="0.5"/>
    <polygon points="-34.64,138.00 -34.64,102.00 -3.46,120.00" fill="#2E86AB" stroke="#2E86AB" stroke-width="0.5"/>
    <text x="0.00" y="124.00" font-size="10" font-family="system-ui, sans-serif" text-anchor="middle" fill="#666666" font-weight="normal">(-1,2)</text>
  <polygon points="-34.64,-140.00 -34.64,-100.00 -69.28,-80.00 -103.92,-100.00 -103.92,-140.00 -69.28,-160.00" fill="#F8F8F8" stroke="#888888" stroke-width="1.5"/>
    <polygon points="-102.19,-141.00 -71.01,-159.00 -71.01,-123.00" fill="#E94F37" stroke="#E94F37" stroke-width="0.5"/>
    <polygon points="-34.64,-138.00 -34.64,-102.00 -65.82,-120.00" fill="#E94F37" stroke="#E94F37" stroke-width="0.5"/>
    <polygon points="-103.92,-102.00 -103.92,-138.00 -72.75,-120.00" fill="#E94F37" stroke="#E94F37" stroke-width="0.5"/>
    <text x="-69.28" y="-116.00" font-size="10" font-family="system-ui, sans-serif" text-anchor="middle" fill="#666666" font-weight="normal">(0,-2)</text>
  <polygon points="-173.21,100.00 -173.21,140.00 -207.85,160.00 -242.49,140.00 -242.49,100.00 -207.85,80.00" fill="#F8F8F8" stroke="#888888" stroke-width="1.5"/>
    <polygon points="-240.76,99.00 -209.58,81.00 -209.58,117.00" fill="#2E86AB" stroke="#2E86AB" stroke-width="0.5"/>
    <polygon points="-206.11,81.00 -174.94,99.00 -206.11,117.00" fill="#2E86AB" stroke="#2E86AB" stroke-width="0.5"/>
    <polygon points="-173.21,102.00 -173.21,138.00 -204.38,120.00" fill="#2E86AB" stroke="#2E86AB" stroke-width="0.5"/>
    <polygon points="-174.94,141.00 -206.11,159.00 -206.11,123.00" fill="#2E86AB" stroke="#2E86AB" stroke-width="0.5"/>
    <polygon points="-209.58,159.00 -240.76,141.00 -209.58,123.00" fill="#2E86AB" stroke="#2E86AB" stroke-width="0.5"/>
    <polygon points="-242.49,138.00 -242.49,102.00 -211.31,120.00" fill="#2E86AB" stroke="#2E86AB" stroke-width="0.5"/>
    <text x="-207.85" y="124.00" font-size="10" font-family="system-ui, sans-serif" text-anchor="middle" fill="#666666" font-weight="normal">(-4,2)</text>
  <polygon points="138.56,-80.00 138.56,-40.00 103.92,-20.00 69.28,-40.00 69.28,-80.00 103.92,-100.00" fill="#F8F8F8" stroke="#888888" stroke-width="1.5"/>
    <polygon points="71.01,-81.00 102.19,-99.00 102.19,-63.00" fill="#E94F37" stroke="#E94F37" stroke-width="0.5"/>
    <polygon points="105.66,-99.00 136.83,-81.00 105.66,-63.00" fill="#E94F37" stroke="#E94F37" stroke-width="0.5"/>
    <polygon points="138.56,-78.00 138.56,-42.00 107.39,-60.00" fill="#E94F37" stroke="#E94F37" stroke-width="0.5"/>
    <polygon points="136.83,-39.00 105.66,-21.00 105.66,-57.00" fill="#E94F37" stroke="#E94F37" stroke-width="0.5"/>
    <polygon points="102.19,-21.00 71.01,-39.00 102.19,-57.00" fill="#E94F37" stroke="#E94F37" stroke-width="0.5"/>
    <polygon points="69.28,-42.00 69.28,-78.00 100.46,-60.00" fill="#E94F37" stroke="#E94F37" stroke-width="0.5"/>
    <text x="103.92" y="-56.00" font-size="10" font-family="system-ui, sans-serif" text-anchor="middle" fill="#666666" font-weight="normal">(2,-1)</text>
  <polygon points="0.00,160.00 0.00,200.00 -34.64,220.00 -69.28,200.00 -69.28,160.00 -34.64,140.00" fill="#F8F8F8" stroke="#888888" stroke-width="1.5"/>
    <polygon points="-67.55,159.00 -36.37,141.00 -36.37,177.00" fill="#2E86AB" stroke="#2E86AB" stroke-width="0.5"/>
    <polygon points="0.00,162.00 0.00,198.00 -31.18,180.00" fill="#2E86AB" stroke="#2E86AB" stroke-width="0.5"/>
    <polygon points="-1.73,201.00 -32.91,219.00 -32.91,183.00" fill="#2E86AB" stroke="#2E86AB" stroke-width="0.5"/>
    <polygon points="-36.37,219.00 -67.55,201.00 -36.37,183.00" fill="#2E86AB" stroke="#2E86AB" stroke-width="0.5"/>
    <text x="-34.64" y="184.00" font-size="10" font-family="system-ui, sans-serif" text-anchor="middle" fill="#666666" font-weight="normal">(-2,3)</text>
  <polygon points="103.92,-140.00 103.92,-100.00 69.28,-80.00 34.64,-100.00 34.64,-140.00 69.28,-160.00" fill="#F8F8F8" stroke="#888888" stroke-width="1.5"/>
    <polygon points="102.19,-99.00 71.01,-81.00 71.01,-117.00" fill="#E94F37" stroke="#E94F37" stroke-width="0.5"/>
    <polygon points="67.55,-81.00 36.37,-99.00 67.55,-117.00" fill="#E94F37" stroke="#E94F37" stroke-width="0.5"/>
    <polygon points="34.64,-102.00 34.64,-138.00 65.82,-120.00" fill="#E94F37" stroke="#E94F37" stroke-width="0.5"/>
    <text x="69.28" y="-116.00" font-size="10" font-family="system-ui, sans-serif" text-anchor="middle" fill="#666666" font-weight="normal">(2,-2)</text>
  <polygon points="-138.56,40.00 -138.56,80.00 -173.21,100.00 -207.85,80.00 -207.85,40.00 -173.21,20.00" fill="#F8F8F8" stroke="#888888" stroke-width="1.5"/>
    <polygon points="-171.47,21.00 -140.30,39.00 -171.47,57.00" fill="#2E86AB" stroke="#2E86AB" stroke-width="0.5"/>
    <polygon points="-174.94,99.00 -206.11,81.00 -174.94,63.00" fill="#2E86AB" stroke="#2E86AB" stroke-width="0.5"/>
    <polygon points="-207.85,78.00 -207.85,42.00 -176.67,60.00" fill="#2E86AB" stroke="#2E86AB" stroke-width="0.5"/>
    <text x="-173.21" y="64.00" font-size="10" font-family="system-ui, sans-serif" text-anchor="middle" fill="#666666" font-weight="normal">(-3,1)</text>
  <polygon points="173.21,-20.00 173.21,20.00 138.56,40.00 103.92,20.00 103.92,-20.00 138.56,-40.00" fill="#F8F8F8" stroke="#888888" stroke-width="1.5"/>
    <polygon points="105.66,-21.00 136.83,-39.00 136.83,-3.00" fill="#E94F37" stroke="#E94F37" stroke-width="0.5"/>
    <text x="138.56" y="4.00" font-size="10" font-family="system-ui, sans-serif" text-anchor="middle" fill="#666666" font-weight="normal">(2,0)</text>
  <polygon points="-207.85,40.00 -207.85,80.00 -242.49,100.00 -277.13,80.00 -277.13,40.00 -242.49,20.00" fill="#F8F8F8" stroke="#888888" stroke-width="1.5"/>
    <polygon points="-240.76,21.00 -209.58,39.00 -240.76,57.00" fill="#2E86AB" stroke="#2E86AB" stroke-width="0.5"/>
    <polygon points="-207.85,42.00 -207.85,78.00 -239.02,60.00" fill="#2E86AB" stroke="#2E86AB" stroke-width="0.5"/>
    <polygon points="-209.58,81.00 -240.76,99.00 -240.76,63.00" fill="#2E86AB" stroke="#2E86AB" stroke-width="0.5"/>
    <polygon points="-244.22,99.00 -275.40,81.00 -244.22,63.00" fill="#2E86AB" stroke="#2E86AB" stroke-width="0.5"/>
    <text x="-242.49" y="64.00" font-size="10" font-family="system-ui, sans-serif" text-anchor="middle" fill="#666666" font-weight="normal">(-4,1)</text>
  <polygon points="-138.56,-80.00 -138.56,-40.00 -173.21,-20.00 -207.85,-40.00 -207.85,-80.00 -173.21,-100.00" fill="#F8F8F8" stroke="#888888" stroke-width="1.5"/>
    <polygon points="-171.47,-99.00 -140.30,-81.00 -171.47,-63.00" fill="#E94F37" stroke="#E94F37" stroke-width="0.5"/>
    <polygon points="-207.85,-42.00 -207.85,-78.00 -176.67,-60.00" fill="#E94F37" stroke="#E94F37" stroke-width="0.5"/>
    <text x="-173.21" y="-56.00" font-size="10" font-family="system-ui, sans-serif" text-anchor="middle" fill="#666666" font-weight="normal">(-2,-1)</text>
  <polygon points="-242.49,100.00 -242.49,140.00 -277.13,160.00 -311.77,140.00 -311.77,100.00 -277.13,80.00" fill="#F8F8F8" stroke="#888888" stroke-width="1.5"/>
    <polygon points="-275.40,81.00 -244.22,99.00 -275.40,117.00" fill="#2E86AB" stroke="#2E86AB" stroke-width="0.5"/>
    <polygon points="-242.49,102.00 -242.49,138.00 -273.66,120.00" fill="#2E86AB" stroke="#2E86AB" stroke-width="0.5"/>
    <polygon points="-244.22,141.00 -275.40,159.00 -275.40,123.00" fill="#2E86AB" stroke="#2E86AB" stroke-width="0.5"/>
    <text x="-277.13" y="124.00" font-size="10" font-family="system-ui, sans-serif" text-anchor="middle" fill="#666666" font-weight="normal">(-5,2)</text>
  <polygon points="-207.85,-80.00 -207.85,-40.00 -242.49,-20.00 -277.13,-40.00 -277.13,-80.00 -242.49,-100.00" fill="#F8F8F8" stroke="#888888" stroke-width="1.5"/>
    <polygon points="-275.40,-81.00 -244.22,-99.00 -244.22,-63.00" fill="#E94F37" stroke="#E94F37" stroke-width="0.5"/>
    <polygon points="-207.85,-78.00 -207.85,-42.00 -239.02,-60.00" fill="#E94F37" stroke="#E94F37" stroke-width="0.5"/>
    <polygon points="-209.58,-39.00 -240.76,-21.00 -240.76,-57.00" fill="#E94F37" stroke="#E94F37" stroke-width="0.5"/>
    <polygon points="-277.13,-42.00 -277.13,-78.00 -245.95,-60.00" fill="#E94F37" stroke="#E94F37" stroke-width="0.5"/>
    <text x="-242.49" y="-56.00" font-size="10" font-family="system-ui, sans-serif" text-anchor="middle" fill="#666666" font-weight="normal">(-3,-1)</text>
  <polygon points="-207.85,160.00 -207.85,200.00 -242.49,220.00 -277.13,200.00 -277.13,160.00 -242.49,140.00" fill="#F8F8F8" stroke="#888888" stroke-width="1.5"/>
    <polygon points="-275.40,159.00 -244.22,141.00 -244.22,177.00" fill="#2E86AB" stroke="#2E86AB" stroke-width="0.5"/>
    <polygon points="-240.76,141.00 -209.58,159.00 -240.76,177.00" fill="#2E86AB" stroke="#2E86AB" stroke-width="0.5"/>
    <text x="-242.49" y="184.00" font-size="10" font-family="system-ui, sans-serif" text-anchor="middle" fill="#666666" font-weight="normal">(-5,3)</text>
  <polygon points="-242.49,-140.00 -242.49,-100.00 -277.13,-80.00 -311.77,-100.00 -311.77,-140.00 -277.13,-160.00" fill="#F8F8F8" stroke="#888888" stroke-width="1.5"/>
    <polygon points="-244.22,-99.00 -275.40,-81.00 -275.40,-117.00" fill="#E94F37" stroke="#E94F37" stroke-width="0.5"/>
    <polygon points="-278.86,-81.00 -310.04,-99.00 -278.86,-117.00" fill="#E94F37" stroke="#E94F37" stroke-width="0.5"/>
    <text x="-277.13" y="-116.00" font-size="10" font-family="system-ui, sans-serif" text-anchor="middle" fill="#666666" font-weight="normal">(-3,-2)</text>
  <polygon points="-34.64,220.00 -34.64,260.00 -69.28,280.00 -103.92,260.00 -103.92,220.00 -69.28,200.00" fill="#F8F8F8" stroke="#888888" stroke-width="1.5"/>
    <polygon points="-67.55,201.00 -36.37,219.00 -67.55,237.00" fill="#2E86AB" stroke="#2E86AB" stroke-width="0.5"/>
    <polygon points="-36.37,261.00 -67.55,279.00 -67.55,243.00" fill="#2E86AB" stroke="#2E86AB" stroke-width="0.5"/>
    <polygon points="-103.92,258.00 -103.92,222.00 -72.75,240.00" fill="#2E86AB" stroke="#2E86AB" stroke-width="0.5"/>
    <text x="-69.28" y="244.00" font-size="10" font-family="system-ui, sans-serif" text-anchor="middle" fill="#666666" font-weight="normal">(-3,4)</text>
  <polygon points="-277.13,-80.00 -277.13,-40.00 -311.77,-20.00 -346.41,-40.00 -346.41,-80.00 -311.77,-100.00" fill="#F8F8F8" stroke="#888888" stroke-width="1.5"/>
    <polygon points="-344.68,-81.00 -313.50,-99.00 -313.50,-63.00" fill="#E94F37" stroke="#E94F37" stroke-width="0.5"/>
    <polygon points="-310.04,-99.00 -278.86,-81.00 -310.04,-63.00" fill="#E94F37" stroke="#E94F37" stroke-width="0.5"/>
    <polygon points="-277.13,-78.00 -277.13,-42.00 -308.31,-60.00" fill="#E94F37" stroke="#E94F37" stroke-width="0.5"/>
    <polygon points="-278.86,-39.00 -310.04,-21.00 -310.04,-57.00" fill="#E94F37" stroke="#E94F37" stroke-width="0.5"/>
    <polygon points="-346.41,-42.00 -346.41,-78.00 -315.23,-60.00" fill="#E94F37" stroke="#E94F37" stroke-width="0.5"/>
    <text x="-311.77" y="-56.00" font-size="10" font-family="system-ui, sans-serif" text-anchor="middle" fill="#666666" font-weight="normal">(-4,-1)</text>
  <rect x="-441.05" y="370.00" width="708.90" height="50.00" fill="#F0F0F0" rx="5"/>
  <rect x="-426.05" y="383.00" width="24.00" height="24.00" fill="#2E86AB" rx="3"/>
  <text x="-392.05" y="400.00" font-size="16" font-family="system-ui, sans-serif" text-anchor="start" fill="#333333" font-weight="bold">Player 1: 16</text>
  <rect x="117.85" y="383.00" width="24.00" height="24.00" fill="#E94F37" rx="3"/>
  <text x="151.85" y="400.00" font-size="16" font-family="system-ui, sans-serif" text-anchor="start" fill="#333333" font-weight="bold">Player 2: 15</text>
</svg>